<svg width="88" height="38" viewBox="0 0 88 38" fill="none" xmlns="http://www.w3.org/2000/svg">
<path d="M0.320312 32V1.0625H10.6914V5.12305H5.03125V14.123H10.4102V18.0957H5.03125V27.9395H10.9023V32H0.320312Z" fill="#3F81BA"/>
<path d="M27.9531 23.3516C27.9531 27.8398 26.7578 30.6348 24.3672 31.7363L27.25 35.1113L24.9297 37.1328L20.5176 32.334C18.4668 32.2051 16.9141 31.4316 15.8594 30.0137C14.8047 28.584 14.2773 26.3633 14.2773 23.3516V9.20117C14.2773 3.5293 16.5918 0.693359 21.2207 0.693359C23.6113 0.693359 25.3281 1.41406 26.3711 2.85547C27.4258 4.29688 27.9531 6.41211 27.9531 9.20117V23.3516ZM19.0234 23.4043C19.0234 25.2207 19.1582 26.4863 19.4277 27.2012C19.709 27.916 20.2773 28.2734 21.1328 28.2734C21.9883 28.2734 22.5508 27.9102 22.8203 27.1836C23.0898 26.4453 23.2246 25.1855 23.2246 23.4043V8.99023C23.2246 7.52539 23.084 6.45898 22.8027 5.79102C22.5332 5.11133 21.9941 4.77148 21.1855 4.77148C20.3887 4.77148 19.8262 5.11133 19.498 5.79102C19.1816 6.45898 19.0234 7.51953 19.0234 8.97266V23.4043ZM76.6445 32V1.0625H87.0156V5.12305H81.3555V14.123H86.7344V18.0957H81.3555V27.9395H87.2266V32H76.6445Z" fill="#E64437"/>
<path d="M45.8828 24.0547C45.8828 26.9023 45.3438 29 44.2656 30.3477C43.1875 31.6836 41.4531 32.3516 39.0625 32.3516C36.6836 32.3516 34.9492 31.6777 33.8594 30.3301C32.7812 28.9824 32.2422 26.8906 32.2422 24.0547V1.04492H36.9531V23.9668C36.9531 25.5957 37.0293 26.5859 37.1816 26.9375C37.334 27.2891 37.5156 27.6113 37.7266 27.9043C37.9492 28.1855 38.4004 28.3262 39.0801 28.3262C39.7598 28.3262 40.2461 28.127 40.5391 27.7285C40.832 27.3301 41.0078 26.8379 41.0664 26.252C41.1367 25.6543 41.1719 24.8926 41.1719 23.9668V1.04492H45.8828V24.0547Z" fill="#F5BC0B"/>
<path d="M50.5234 32V1.0625H55.2344V32H50.5234Z" fill="#4F8DBE"/>
<path d="M60.0508 32V1.0625H67.1523C69.5547 1.0625 71.1953 1.79492 72.0742 3.25977C72.9648 4.71289 73.4336 6.88672 73.4805 9.78125V10.4316C73.4805 13.502 73.041 15.834 72.1621 17.4277C71.2949 19.0098 69.6777 19.8008 67.3105 19.8008H64.7617V32H60.0508ZM64.7617 15.916H66.3789C67.375 15.916 68.0195 15.5352 68.3125 14.7734C68.6172 14 68.7695 12.5352 68.7695 10.3789V9.78125C68.7578 7.95312 68.5938 6.64648 68.2773 5.86133C67.9727 5.07617 67.3516 4.68359 66.4141 4.68359H64.7617V15.916Z" fill="#319F4F"/>
</svg>
