<svg width="640" height="40" viewBox="0 0 640 40" fill="none" xmlns="http://www.w3.org/2000/svg">
<rect width="640" height="40" fill="#E3E3E3"/>
<circle cx="28" cy="20" r="8" fill="#ED6A5F"/>
<circle cx="76" cy="20" r="8" fill="#62C655"/>
<circle cx="52" cy="20" r="8" fill="#F6BF4F"/>
<path d="M281.02 23.6758C281.02 25.9199 280.422 27.3174 279.227 27.8682L280.668 29.5557L279.508 30.5664L277.302 28.167C276.276 28.1025 275.5 27.7158 274.973 27.0068C274.445 26.292 274.182 25.1816 274.182 23.6758V16.6006C274.182 13.7646 275.339 12.3467 277.653 12.3467C278.849 12.3467 279.707 12.707 280.229 13.4277C280.756 14.1484 281.02 15.2061 281.02 16.6006V23.6758ZM276.555 23.7021C276.555 24.6104 276.622 25.2432 276.757 25.6006C276.897 25.958 277.182 26.1367 277.609 26.1367C278.037 26.1367 278.318 25.9551 278.453 25.5918C278.588 25.2227 278.655 24.5928 278.655 23.7021V16.4951C278.655 15.7627 278.585 15.2295 278.444 14.8955C278.31 14.5557 278.04 14.3857 277.636 14.3857C277.237 14.3857 276.956 14.5557 276.792 14.8955C276.634 15.2295 276.555 15.7598 276.555 16.4863V23.7021ZM289.984 24.0273C289.984 25.4512 289.715 26.5 289.176 27.1738C288.637 27.8418 287.77 28.1758 286.574 28.1758C285.385 28.1758 284.518 27.8389 283.973 27.165C283.434 26.4912 283.164 25.4453 283.164 24.0273V12.5225H285.52V23.9834C285.52 24.7979 285.558 25.293 285.634 25.4688C285.71 25.6445 285.801 25.8057 285.906 25.9521C286.018 26.0928 286.243 26.1631 286.583 26.1631C286.923 26.1631 287.166 26.0635 287.312 25.8643C287.459 25.665 287.547 25.4189 287.576 25.126C287.611 24.8271 287.629 24.4463 287.629 23.9834V12.5225H289.984V24.0273ZM292.217 28V12.5312H297.402V14.5615H294.572V19.0615H297.262V21.0479H294.572V25.9697H297.508V28H292.217ZM299.389 28V12.5312H302.315L304.513 23.834L306.578 12.5312H309.522V28H307.422V22.2344L307.51 16.9434L305.427 27.9297H303.555L301.384 16.9434L301.472 22.2344V28H299.389ZM314.778 23.6494V22.2695H317.011V23.8252C317.011 24.6865 317.084 25.293 317.23 25.6445C317.377 25.9902 317.652 26.1631 318.057 26.1631C318.461 26.1631 318.728 26.0195 318.856 25.7324C318.991 25.4453 319.059 24.9766 319.059 24.3262C319.059 23.6758 318.941 23.1104 318.707 22.6299C318.473 22.1436 318.101 21.6367 317.591 21.1094L316.448 19.9316C315.915 19.375 315.499 18.7979 315.2 18.2002C314.907 17.6025 314.761 16.9111 314.761 16.126C314.761 14.8486 315.007 13.8994 315.499 13.2783C315.991 12.6572 316.838 12.3467 318.039 12.3467C319.24 12.3467 320.052 12.71 320.474 13.4365C320.901 14.1572 321.115 15.2119 321.115 16.6006V17.5586H318.944V16.4512C318.944 15.7012 318.88 15.165 318.751 14.8428C318.622 14.5146 318.373 14.3506 318.004 14.3506C317.641 14.3506 317.377 14.4736 317.213 14.7197C317.055 14.9658 316.976 15.335 316.976 15.8271C316.976 16.3193 317.058 16.7119 317.222 17.0049C317.386 17.2979 317.682 17.6729 318.109 18.1299L319.384 19.5098C320.022 20.2012 320.503 20.9014 320.825 21.6104C321.153 22.3193 321.317 23.0928 321.317 23.9307C321.317 25.3779 321.074 26.4473 320.588 27.1387C320.102 27.8301 319.249 28.1758 318.03 28.1758C316.817 28.1758 315.971 27.792 315.49 27.0244C315.016 26.251 314.778 25.126 314.778 23.6494ZM325.229 23.7021C325.229 24.6104 325.296 25.2432 325.431 25.6006C325.571 25.958 325.855 26.1367 326.283 26.1367C326.711 26.1367 326.992 25.9551 327.127 25.5918C327.262 25.2227 327.329 24.5928 327.329 23.7021V16.4951C327.329 15.7627 327.259 15.2295 327.118 14.8955C326.983 14.5557 326.714 14.3857 326.31 14.3857C325.911 14.3857 325.63 14.5557 325.466 14.8955C325.308 15.2295 325.229 15.7598 325.229 16.4863V23.7021ZM329.693 23.6758C329.693 25.1875 329.424 26.3154 328.885 27.0596C328.346 27.8037 327.481 28.1758 326.292 28.1758C325.108 28.1758 324.238 27.8037 323.682 27.0596C323.131 26.3096 322.855 25.1816 322.855 23.6758V16.6006C322.855 13.7646 324.013 12.3467 326.327 12.3467C327.522 12.3467 328.381 12.707 328.902 13.4277C329.43 14.1484 329.693 15.2061 329.693 16.6006V23.6758ZM331.838 28V12.5312H334.765L336.962 23.834L339.027 12.5312H341.972V28H339.871V22.2344L339.959 16.9434L337.876 27.9297H336.004L333.833 16.9434L333.921 22.2344V28H331.838ZM346.48 23.7021C346.48 24.6104 346.548 25.2432 346.683 25.6006C346.823 25.958 347.107 26.1367 347.535 26.1367C347.963 26.1367 348.244 25.9551 348.379 25.5918C348.514 25.2227 348.581 24.5928 348.581 23.7021V16.4951C348.581 15.7627 348.511 15.2295 348.37 14.8955C348.235 14.5557 347.966 14.3857 347.562 14.3857C347.163 14.3857 346.882 14.5557 346.718 14.8955C346.56 15.2295 346.48 15.7598 346.48 16.4863V23.7021ZM350.945 23.6758C350.945 25.1875 350.676 26.3154 350.137 27.0596C349.598 27.8037 348.733 28.1758 347.544 28.1758C346.36 28.1758 345.49 27.8037 344.934 27.0596C344.383 26.3096 344.107 25.1816 344.107 23.6758V16.6006C344.107 13.7646 345.265 12.3467 347.579 12.3467C348.774 12.3467 349.633 12.707 350.154 13.4277C350.682 14.1484 350.945 15.2061 350.945 16.6006V23.6758ZM352.782 23.6494V22.2695H355.015V23.8252C355.015 24.6865 355.088 25.293 355.234 25.6445C355.381 25.9902 355.656 26.1631 356.061 26.1631C356.465 26.1631 356.731 26.0195 356.86 25.7324C356.995 25.4453 357.062 24.9766 357.062 24.3262C357.062 23.6758 356.945 23.1104 356.711 22.6299C356.477 22.1436 356.104 21.6367 355.595 21.1094L354.452 19.9316C353.919 19.375 353.503 18.7979 353.204 18.2002C352.911 17.6025 352.765 16.9111 352.765 16.126C352.765 14.8486 353.011 13.8994 353.503 13.2783C353.995 12.6572 354.842 12.3467 356.043 12.3467C357.244 12.3467 358.056 12.71 358.478 13.4365C358.905 14.1572 359.119 15.2119 359.119 16.6006V17.5586H356.948V16.4512C356.948 15.7012 356.884 15.165 356.755 14.8428C356.626 14.5146 356.377 14.3506 356.008 14.3506C355.645 14.3506 355.381 14.4736 355.217 14.7197C355.059 14.9658 354.979 15.335 354.979 15.8271C354.979 16.3193 355.062 16.7119 355.226 17.0049C355.39 17.2979 355.686 17.6729 356.113 18.1299L357.388 19.5098C358.026 20.2012 358.507 20.9014 358.829 21.6104C359.157 22.3193 359.321 23.0928 359.321 23.9307C359.321 25.3779 359.078 26.4473 358.592 27.1387C358.105 27.8301 357.253 28.1758 356.034 28.1758C354.821 28.1758 353.975 27.792 353.494 27.0244C353.02 26.251 352.782 25.126 352.782 23.6494ZM362.099 23.6582V20.8809C362.638 20.7402 363.019 20.6084 363.241 20.4854C363.464 20.3564 363.637 20.251 363.76 20.1689C363.889 20.0811 364.029 19.9287 364.182 19.7119C364.334 19.4951 364.457 19.1846 364.551 18.7803C364.65 18.3701 364.7 17.6816 364.7 16.7148V16.1348C364.7 15.3965 364.68 14.9746 364.639 14.8691C364.598 14.7578 364.542 14.6494 364.472 14.5439C364.401 14.4385 364.27 14.3857 364.076 14.3857C363.613 14.3857 363.353 14.6055 363.294 15.0449C363.259 15.3262 363.241 15.7305 363.241 16.2578V17.8047H360.947V15.9062C360.947 13.5332 361.958 12.3467 363.979 12.3467C365.081 12.3467 365.857 12.6279 366.309 13.1904C366.607 13.5596 366.807 14.0283 366.906 14.5967C367.006 15.165 367.056 15.8242 367.056 16.5742C367.056 16.7266 367.056 16.8086 367.056 16.8203C367.056 16.8848 367.056 16.9492 367.056 17.0137C367.056 17.0664 367.056 17.1191 367.056 17.1719C367.056 17.582 367.035 17.9863 366.994 18.3848C366.883 19.4395 366.619 20.2334 366.203 20.7666C365.775 21.3115 365.099 21.7188 364.173 21.9883V23.6582H362.099ZM362.151 27.9912V25.3721H364.19V27.9912H362.151Z" fill="black"/>
</svg>
